<svg id="Layer_1" data-name="Layer 1" xmlns="http://www.w3.org/2000/svg" viewBox="0 0 2798.8 1980.86"><defs><style>.cls-1{fill:#b26900;}.cls-2{fill:#ffdea9;}</style></defs><path class="cls-1" d="M160.83,989.27q18.09-6.06,35.41-13.71l.89-.3v-.09c144.88-64.41,246-209.49,246-378.27C443.09,368.33,257.8,183,29.23,183c0,0-310-48.26-928.63,544,0,0,693.18,671.24,1232.81,763.37C333.41,1490.43-108.53,1114.32,160.83,989.27Z" transform="translate(899.4 490.43)"/><path class="cls-1" d="M839.17,989.27q-18.09-6.06-35.41-13.71l-.89-.3v-.09c-144.88-64.41-246-209.49-246-378.27C556.91,368.33,742.2,183,970.77,183c0,0,310-48.26,928.63,544,0,0-693.18,671.24-1232.81,763.37C666.59,1490.43,1108.53,1114.32,839.17,989.27Z" transform="translate(899.4 490.43)"/><path class="cls-1" d="M463.58,1214.14,345,1374.46c-18.94,25.61-.66,61.86,31.19,61.86H623.78c31.85,0,50.13-36.25,31.19-61.86L536.42,1214.14A45.29,45.29,0,0,0,463.58,1214.14Z" transform="translate(899.4 490.43)"/><path class="cls-2" d="M944.4-102.29s283.76,41.84,432.75,217.38c0,0,184.27-308.67,119.32-604.11C1496.47-489,1126.41-535,944.4-102.29Z" transform="translate(899.4 490.43)"/><path class="cls-2" d="M23.07-102.31S-251.92-61.73-402.61,107c-2.31,2.68-4.69,5.42-7.07,8.1,0,0-184.26-308.69-119.3-604.1C-529-489-158.94-535,23.07-102.31Z" transform="translate(899.4 490.43)"/><circle class="cls-2" cx="972.44" cy="1125.98" r="200.72"/><circle class="cls-2" cx="1775.3" cy="1125.98" r="200.72"/><path class="cls-1" d="M23.07-102.31S-251.92-61.73-402.61,107C-128-216.26-529-489-529-489S-158.94-535,23.07-102.31Z" transform="translate(899.4 490.43)"/><path class="cls-1" d="M944.4-102.31s275,40.58,425.68,209.31c-274.57-323.26,126.37-596,126.37-596S1126.4-535,944.4-102.31Z" transform="translate(899.4 490.43)"/></svg>