<svg id="Layer_1" data-name="Layer 1" xmlns="http://www.w3.org/2000/svg" viewBox="0 0 2393.49 1694"><defs><style>.cls-1{fill:#ffe8c7;}.cls-2{fill:#fff;}</style></defs><path class="cls-1" d="M209.94,918.42q15.48-5.19,30.29-11.73l.76-.26v-.08c123.9-55.07,210.35-179.14,210.35-323.48,0-195.47-158.46-353.93-353.93-353.93,0,0-265.13-41.27-794.14,465.23,0,0,592.79,574,1054.27,652.83C357.53,1347-20.4,1025.36,209.94,918.42Z" transform="translate(696.74 347)"/><path class="cls-1" d="M790.06,918.42q-15.48-5.19-30.29-11.73l-.76-.26v-.08c-123.9-55.07-210.35-179.14-210.35-323.48,0-195.47,158.46-353.93,353.93-353.93,0,0,265.13-41.27,794.14,465.23,0,0-592.79,574-1054.27,652.83C642.47,1347,1020.4,1025.36,790.06,918.42Z" transform="translate(696.74 347)"/><path class="cls-1" d="M453.14,1132l-63.74,86.2c-25.27,34.17-.87,82.56,41.63,82.56H569c42.5,0,66.9-48.39,41.63-82.56L546.86,1132A58.29,58.29,0,0,0,453.14,1132Z" transform="translate(696.74 347)"/><path class="cls-2" d="M880-15.07s242.67,35.78,370.09,185.9c0,0,157.58-264,102-516.62C1352.17-345.79,1035.69-385.14,880-15.07Z" transform="translate(696.74 347)"/><path class="cls-2" d="M92.14-15.09s-235.17,34.71-364,179c-2,2.29-4,4.64-6,6.93,0,0-157.58-264-102-516.61C-380-345.77-63.51-385.12,92.14-15.09Z" transform="translate(696.74 347)"/><circle class="cls-2" cx="831.61" cy="962.92" r="171.65"/><circle class="cls-2" cx="1518.21" cy="962.92" r="171.65"/><path class="cls-1" d="M92.14-15.09s-235.17,34.71-364,179C-37.09-112.53-380-345.77-380-345.77S-63.51-385.12,92.14-15.09Z" transform="translate(696.74 347)"/><path class="cls-1" d="M880-15.09s235.17,34.71,364,179c-234.81-276.44,108.07-509.68,108.07-509.68S1035.69-385.12,880-15.09Z" transform="translate(696.74 347)"/></svg>